<svg id="圖層_1" data-name="圖層 1" xmlns="http://www.w3.org/2000/svg" viewBox="0 0 239.51 76.86"><defs><style>.cls-1{fill:none;stroke:#231815;stroke-linecap:round;stroke-miterlimit:10;stroke-width:2px;}</style></defs><title>yuli</title><path id="sara" class="cls-1" d="M16.53,53.93s1.75,5.9,4.71,6.29S31,61,42.3,54.51,89.89,25.88,88.6,23.78a10.19,10.19,0,0,0-6.75-4.55c-3.39-.81-9.07.33-8.18,4.12s5.4,10.26,7,16.72c1.2,4.9-1.54,12.81-9.49,15.33-6,1.92-11.26.5-13.62-2.18-1.73-2-3.42-4-4.79-10.22-.62-2.77-.15,2.89,5.1,7.19,2.37,1.94,6.14,3.3,11.59,3.09C76.63,53,88,48.06,95.77,44.8s6.93-1.52,6.93-1.52a11.43,11.43,0,0,0-10.33,4.53c-4.11,5.49-1.18,10.11,1.7,9.44s9.09-4.74,11.28-10.7c1.09-2.89-1.67,7,.88,8.88,1.68,1.24,3.62,2.43,8.61-3,4-4.35,6.55-8.88,7.51-9.37s.26.94,1.86.93,3.2-.68,3.69.12-4.79,9.53-3.33,11.12,1.25,4.61,9.68-1.25,12.21-12.48,15-11.5c1.68.58-5.8,1.84-8.33,6.6-2,3.78-1.14,7.65,2.93,7.94,3.74.26,7.52-4.67,9.57-8.54s-.35,3.8,4.83,6.36c2.24,1.1,3,2.16,11-2.41s8.65-2.82,13.14-2.71,5.21-1,8.75,0,13.48.81,13.48.81"/></svg>