<svg id="圖層_7" data-name="圖層 7" xmlns="http://www.w3.org/2000/svg" viewBox="0 0 138.84 76.86"><defs><style>.cls-1{fill:none;stroke:#231815;stroke-linecap:round;stroke-miterlimit:10;stroke-width:2px;}</style></defs><title>yuli</title><path id="yuli" class="cls-1" d="M11.69,22.53s5.4-6.42,9.11-6.08,4.73,6.41,3.71,13.5S22.83,40.08,26.2,41.77s9.12,1,15.19-5.07S53.21,24.55,53.21,20.5s-5.4,2-9.12,7.09S37,41.77,36.33,45.14,31.94,61.68,27.55,63s-11.14,1.35-6.75-5.4S32.62,50.21,38,50.21s7.76,2,10.8,5.4,8.44-1.35,10.46-4.73,3.26-9.15,4.45-.11,8.8,1.19,10.46-.24,14-15,15.46-18.55,4.76-10.46.48-9.74-7.61,6.18-10,13.07-1.67,15.46,3.57,17.36,15.69-6.9,17.59-9.75,1.9-1,2.14,2.14-1.19,6.42,3.09,6.66,11.65-5.47,16.64-7.61"/><line id="i" class="cls-1" x1="107.01" y1="17.72" x2="112.95" y2="25.56"/></svg>